<svg xmlns="http://www.w3.org/2000/svg" xmlns:xlink="http://www.w3.org/1999/xlink" version="1.1" x="0px" y="0px" viewBox="0 0 100 125" enable-background="new 0 0 100 100" xml:space="preserve"><path d="M85.461,60.684c-6.456-0.634-15.5,3.466-23.146,11.111c-5.225,5.226-8.79,11.103-10.323,16.362V55.101  c0.121,0.186,0.219,0.378,0.353,0.559c3.573,4.814,10.369,5.822,15.183,2.251c4.815-3.569,5.822-10.365,2.252-15.18  c-0.666-0.894-1.439-1.658-2.294-2.284c0.138-0.395,0.263-0.792,0.373-1.198c1.061-0.03,2.132-0.215,3.187-0.574  c5.674-1.925,8.714-8.088,6.787-13.764c-1.924-5.675-8.088-8.715-13.765-6.786c-1.058,0.358-2.022,0.864-2.882,1.486  c-0.252-0.192-0.5-0.392-0.763-0.572c0.307-1.009,0.476-2.077,0.476-3.186C60.898,9.86,56.039,5,50.048,5  c-5.995,0-10.853,4.86-10.853,10.852c0,1.109,0.169,2.177,0.478,3.186c-0.349,0.236-0.68,0.495-1.011,0.754  c-0.868-0.605-1.838-1.095-2.9-1.436c-5.708-1.834-11.819,1.306-13.652,7.012c-1.833,5.706,1.307,11.817,7.012,13.65  c1.059,0.339,2.131,0.507,3.187,0.52c0.12,0.404,0.259,0.799,0.404,1.191c-0.844,0.643-1.608,1.417-2.257,2.323  c-3.491,4.872-2.372,11.652,2.501,15.144c4.83,3.462,11.534,2.384,15.05-2.388v32.35c-1.533-5.26-5.098-11.139-10.325-16.364  c-7.645-7.647-16.689-11.745-23.145-11.111c-0.631,6.454,3.466,15.495,11.112,23.143c7.34,7.342,15.968,11.399,22.357,11.149V95  h3.984v-0.024c6.393,0.248,15.016-3.808,22.357-11.149C81.997,76.181,86.096,67.138,85.461,60.684z M37.293,34.7  c0-7.017,5.688-12.704,12.707-12.704S62.705,27.683,62.705,34.7c0,7.018-5.687,12.707-12.705,12.707S37.293,41.718,37.293,34.7z"/><text x="0" y="115" fill="#000000" font-size="5px" font-weight="bold" font-family="'Helvetica Neue', Helvetica, Arial-Unicode, Arial, Sans-serif">Created by Aaron K. Kim</text><text x="0" y="120" fill="#000000" font-size="5px" font-weight="bold" font-family="'Helvetica Neue', Helvetica, Arial-Unicode, Arial, Sans-serif">from the Noun Project</text></svg>