<svg xmlns="http://www.w3.org/2000/svg" xmlns:xlink="http://www.w3.org/1999/xlink" version="1.1" x="0px" y="0px" viewBox="0 0 100 125" enable-background="new 0 0 100 100" xml:space="preserve"><path fill="#000000" d="M63.398,64.812l-6.43-5.279l-3.511,4.879l-5.523-4.533l-4.866,4.635l-4.432-4.663l-9.378,7.248l3.669,4.745  l5.092-3.936l4.837,5.091l5.375-5.119l6.364,5.221l3.508-4.876l5.449,4.475l8.276-7.355l-3.983-4.483L63.398,64.812z M63.492,69.622  l-5.831-4.789l-3.511,4.876l-6.035-4.951l-5.177,4.93l-4.678-4.924l-4.913,3.797l-0.806-1.041l5.854-4.526l4.589,4.83l5.064-4.825  l5.852,4.803l3.51-4.878l6.047,4.965l4.191-3.726l0.876,0.985L63.492,69.622z M86.983,40.006l-0.011-0.088  C85.992,20.483,69.979,5.266,50.5,5.266S15.008,20.484,14.027,39.918l-0.011,0.09c-0.021,0.147-0.037,0.295-0.037,0.449v43.674  l0.008,0.307c-0.005,0.096-0.008,0.191-0.008,0.288c0,5.519,4.489,10.008,10.008,10.008c3.823,0,7.152-2.155,8.837-5.315  c1.685,3.16,5.015,5.315,8.838,5.315c3.824,0,7.153-2.155,8.837-5.315c1.685,3.16,5.014,5.315,8.837,5.315  c3.825,0,7.154-2.155,8.839-5.315c1.685,3.16,5.014,5.315,8.837,5.315c5.325,0,9.692-4.182,9.991-9.434h0.017V40.457  C87.021,40.302,87.003,40.153,86.983,40.006 M77.013,92.395c-1.885,0-3.611-0.688-4.948-1.82c-1.465-1.199-3.396-3.524-3.79-7.613  h-0.146c-0.648,6.755-5.503,8.698-5.503,8.698v-0.017c-0.997,0.476-2.11,0.752-3.289,0.752c-1.167,0-2.271-0.271-3.262-0.739v0.004  c0,0-4.854-1.943-5.502-8.698h-0.146c-0.65,6.755-5.503,8.698-5.503,8.698v-0.004c-0.992,0.468-2.095,0.739-3.262,0.739  c-1.164,0-2.263-0.27-3.252-0.735l0,0c0,0-0.134-0.053-0.361-0.174c-0.027-0.015-0.054-0.029-0.08-0.043  c-0.154-0.085-0.343-0.197-0.557-0.339c-0.018-0.012-0.036-0.023-0.054-0.036c-1.466-0.99-3.996-3.361-4.451-8.106h-0.146  c-0.65,6.755-5.504,8.698-5.504,8.698V91.65c-0.993,0.471-2.1,0.744-3.271,0.744c-4.228,0-7.668-3.44-7.668-7.669  c0-0.014,0.002-0.029,0.002-0.043H16.32l0-1.722V40.457c0-0.045,0.009-0.089,0.016-0.132c0.008-0.065,0.017-0.129,0.023-0.196  l0.004-0.056C17.262,21.867,32.256,7.606,50.5,7.606c18.243,0,33.238,14.261,34.138,32.466l0.004,0.058  c0.007,0.065,0.016,0.128,0.023,0.192c0.006,0.044,0.016,0.088,0.016,0.135v41.566v0.938v1.488l0,0c0,0.061,0,0.127,0,0.193  l-0.008,0.24C84.588,89.038,81.188,92.395,77.013,92.395 M65.419,33.014c-5.988,0-10.862,4.873-10.862,10.863  c0,5.99,4.874,10.863,10.862,10.863c5.99,0,10.863-4.874,10.863-10.863C76.282,37.887,71.409,33.014,65.419,33.014z M56.897,43.877  c0-4.578,3.628-8.312,8.158-8.505L61.04,51.175C58.562,49.683,56.897,46.974,56.897,43.877z M35.391,33.014  c-5.99,0-10.863,4.873-10.863,10.863c0,5.99,4.874,10.863,10.863,10.863c5.99,0,10.862-4.874,10.862-10.863  C46.253,37.887,41.381,33.014,35.391,33.014z M26.868,43.877c0-4.658,3.757-8.451,8.399-8.517l-4.05,15.94  C28.625,49.836,26.868,47.06,26.868,43.877z"/><text x="0" y="115" fill="#000000" font-size="5px" font-weight="bold" font-family="'Helvetica Neue', Helvetica, Arial-Unicode, Arial, Sans-serif">Created by Ozza Okuonghae</text><text x="0" y="120" fill="#000000" font-size="5px" font-weight="bold" font-family="'Helvetica Neue', Helvetica, Arial-Unicode, Arial, Sans-serif">from the Noun Project</text></svg>