<svg xmlns="http://www.w3.org/2000/svg" xmlns:xlink="http://www.w3.org/1999/xlink" version="1.1" x="0px" y="0px" viewBox="0 0 90 112.5" enable-background="new 0 0 90 90" xml:space="preserve"><g><path d="M76.875,9.855h-63.75C6.439,9.855,1,15.294,1,21.98v31.874c0,6.687,5.439,12.125,12.125,12.125h41.43l16.975,16.166V65.979   h5.347C83.561,65.979,89,60.539,89,53.854V21.98C89,15.294,83.561,9.855,76.875,9.855z M86,53.854c0,5.031-4.094,9.125-9.125,9.125   h-8.348v12.166L55.754,62.979H13.125C8.093,62.979,4,58.885,4,53.854V21.98c0-5.031,4.093-9.125,9.125-9.125h63.75   c5.031,0,9.125,4.093,9.125,9.125V53.854z"/><rect x="16.667" y="23.786" width="56.903" height="3"/><rect x="16.667" y="35.237" width="56.903" height="3"/><rect x="16.667" y="46.688" width="34.472" height="3"/></g><text x="0" y="105" fill="#000000" font-size="5px" font-weight="bold" font-family="'Helvetica Neue', Helvetica, Arial-Unicode, Arial, Sans-serif">Created by João Paulo</text><text x="0" y="110" fill="#000000" font-size="5px" font-weight="bold" font-family="'Helvetica Neue', Helvetica, Arial-Unicode, Arial, Sans-serif">from the Noun Project</text></svg>