<svg xmlns="http://www.w3.org/2000/svg" xmlns:xlink="http://www.w3.org/1999/xlink" version="1.1" x="0px" y="0px" viewBox="0 0 100 125" enable-background="new 0 0 100 100" xml:space="preserve"><g><path fill="#000000" d="M69.789,92.298c-1.61,0-5.144-1.204-13.792-6.272c-8.354-4.896-16.621-10.711-22.681-15.952l-0.661-0.573   l0.002-0.002c-7.304-6.424-15.381-15.251-15.381-27.151c0-17.102,13.913-31.015,31.015-31.015s31.015,13.913,31.015,31.015   c0,8.493-3.447,16.231-10.246,23.005L68.7,65.821c-0.379,0.495-9.211,12.266,0.141,20.748c1.521,1.38,3.821,3.465,2.375,5.097   C70.966,91.948,70.656,92.298,69.789,92.298z M66.774,63.395c6.325-6.232,9.532-13.313,9.532-21.047   c0-15.447-12.567-28.015-28.015-28.015S20.277,26.9,20.277,42.347c0,10.978,7.582,19.028,15,25.455l0.003,0.003   c10.046,8.688,23.943,17.001,30.688,20.159c-8.735-8.976-2.007-20.476-0.105-23.318"/></g><g><path fill="#000000" d="M41.349,38.609c-0.246,0-0.494-0.061-0.725-0.188l-9.856-5.45c-0.725-0.401-0.987-1.313-0.586-2.039   c0.4-0.725,1.313-0.988,2.039-0.586l9.856,5.45c0.725,0.401,0.987,1.313,0.586,2.039C42.39,38.33,41.877,38.609,41.349,38.609z"/></g><g><path fill="#000000" d="M31.025,41.518c-0.675,0-1.288-0.458-1.456-1.143c-0.198-0.805,0.294-1.617,1.099-1.814l9.752-2.396   c0.804-0.2,1.617,0.294,1.814,1.099c0.198,0.805-0.294,1.617-1.099,1.814l-9.752,2.396C31.264,41.503,31.143,41.518,31.025,41.518z   "/></g><g><path fill="#000000" d="M54.251,38.609c-0.528,0-1.041-0.28-1.314-0.774c-0.401-0.725-0.138-1.638,0.586-2.039l9.855-5.45   c0.727-0.402,1.638-0.139,2.039,0.586s0.138,1.638-0.586,2.039l-9.855,5.45C54.746,38.549,54.497,38.609,54.251,38.609z"/></g><g><path fill="#000000" d="M64.575,41.518c-0.118,0-0.239-0.014-0.359-0.044l-9.751-2.396c-0.804-0.197-1.296-1.01-1.099-1.814   c0.198-0.804,1.008-1.298,1.814-1.099l9.751,2.396c0.804,0.197,1.296,1.01,1.099,1.814C65.863,41.059,65.25,41.518,64.575,41.518z"/></g><g><path fill="#000000" d="M41.757,54.07c-0.302,0-0.607-0.091-0.872-0.281c-0.674-0.482-0.828-1.419-0.346-2.093   c0.132-0.184,3.276-4.503,7.561-4.503c0.004,0,0.008,0,0.013,0c2.46,0.005,4.683,1.38,6.605,4.086   c0.48,0.675,0.321,1.612-0.354,2.091c-0.676,0.48-1.611,0.32-2.091-0.354c-1.33-1.871-2.731-2.821-4.166-2.824   c-0.002,0-0.005,0-0.007,0c-2.717,0-5.099,3.218-5.122,3.25C42.685,53.852,42.224,54.07,41.757,54.07z"/></g><text x="0" y="115" fill="#000000" font-size="5px" font-weight="bold" font-family="'Helvetica Neue', Helvetica, Arial-Unicode, Arial, Sans-serif">Created by Elena Rimeikaite</text><text x="0" y="120" fill="#000000" font-size="5px" font-weight="bold" font-family="'Helvetica Neue', Helvetica, Arial-Unicode, Arial, Sans-serif">from the Noun Project</text></svg>